<mxfile host="65bd71144e">
    <diagram id="OULqkPqYT9If97Nq9fy1" name="Page-1">
        <mxGraphModel dx="315" dy="342" grid="1" gridSize="10" guides="1" tooltips="1" connect="1" arrows="1" fold="1" page="1" pageScale="1" pageWidth="827" pageHeight="1169" background="#ffffff" math="0" shadow="0">
            <root>
                <mxCell id="0"/>
                <mxCell id="1" parent="0"/>
                <mxCell id="2" value="" style="ellipse;fillColor=#eeeeee;strokeColor=#36393d;" vertex="1" parent="1">
                    <mxGeometry x="230" y="100" width="30" height="30" as="geometry"/>
                </mxCell>
                <mxCell id="3" value="&lt;font color=&quot;#000000&quot;&gt;Startside&lt;/font&gt;" style="html=1;align=center;verticalAlign=top;rounded=1;absoluteArcSize=1;arcSize=10;dashed=0;fillColor=#eeeeee;strokeColor=#36393d;" vertex="1" parent="1">
                    <mxGeometry x="175" y="160" width="140" height="30" as="geometry"/>
                </mxCell>
                <mxCell id="4" value="&lt;font color=&quot;#000000&quot;&gt;Start spillet&lt;/font&gt;" style="html=1;shape=mxgraph.infographic.ribbonSimple;notch1=20;notch2=20;align=center;verticalAlign=middle;fontSize=14;fontStyle=0;fillColor=#eeeeee;strokeColor=#36393d;" vertex="1" parent="1">
                    <mxGeometry x="165" y="210" width="160" height="30" as="geometry"/>
                </mxCell>
                <mxCell id="5" value="" style="html=1;points=[];perimeter=orthogonalPerimeter;fillColor=#eeeeee;rotation=90;strokeColor=#36393d;" vertex="1" parent="1">
                    <mxGeometry x="237.5" y="90" width="15" height="377.5" as="geometry"/>
                </mxCell>
                <mxCell id="6" value="&lt;font color=&quot;#000000&quot;&gt;Hel julekugle falder ned&lt;/font&gt;" style="html=1;align=center;verticalAlign=top;rounded=1;absoluteArcSize=1;arcSize=10;dashed=0;fillColor=#eeeeee;strokeColor=#36393d;" vertex="1" parent="1">
                    <mxGeometry x="80" y="330" width="140" height="30" as="geometry"/>
                </mxCell>
                <mxCell id="7" value="&lt;font color=&quot;#000000&quot;&gt;Knust julekugle falder ned&lt;/font&gt;" style="html=1;align=center;verticalAlign=top;rounded=1;absoluteArcSize=1;arcSize=10;dashed=0;fillColor=#eeeeee;strokeColor=#36393d;" vertex="1" parent="1">
                    <mxGeometry x="260" y="330" width="140" height="30" as="geometry"/>
                </mxCell>
                <mxCell id="8" value="&lt;font color=&quot;#000000&quot;&gt;Klik på julekugler&lt;/font&gt;" style="html=1;shape=mxgraph.infographic.ribbonSimple;notch1=20;notch2=20;align=center;verticalAlign=middle;fontSize=14;fontStyle=0;fillColor=#eeeeee;strokeColor=#36393d;" vertex="1" parent="1">
                    <mxGeometry x="80" y="390" width="160" height="30" as="geometry"/>
                </mxCell>
                <mxCell id="9" value="&lt;font color=&quot;#000000&quot;&gt;Klik på julekugler&lt;/font&gt;" style="html=1;shape=mxgraph.infographic.ribbonSimple;notch1=20;notch2=20;align=center;verticalAlign=middle;fontSize=14;fontStyle=0;fillColor=#eeeeee;strokeColor=#36393d;" vertex="1" parent="1">
                    <mxGeometry x="250" y="390" width="160" height="30" as="geometry"/>
                </mxCell>
                <mxCell id="10" value="&lt;font color=&quot;#000000&quot;&gt;Spil kling lyd&lt;br&gt;Funklende julekugle vises&lt;br&gt;&lt;/font&gt;" style="html=1;align=center;verticalAlign=top;rounded=1;absoluteArcSize=1;arcSize=10;dashed=0;fillColor=#eeeeee;strokeColor=#36393d;" vertex="1" parent="1">
                    <mxGeometry x="80" y="450" width="140" height="40" as="geometry"/>
                </mxCell>
                <mxCell id="11" value="&lt;font color=&quot;#000000&quot;&gt;Spil knas lyd&lt;br&gt;Knust julekugle vises&lt;br&gt;&lt;/font&gt;" style="html=1;align=center;verticalAlign=top;rounded=1;absoluteArcSize=1;arcSize=10;dashed=0;fillColor=#eeeeee;strokeColor=#36393d;" vertex="1" parent="1">
                    <mxGeometry x="260" y="450" width="140" height="40" as="geometry"/>
                </mxCell>
                <mxCell id="33" value="" style="edgeStyle=none;html=1;fontColor=#000000;" edge="1" parent="1" source="12" target="10">
                    <mxGeometry relative="1" as="geometry"/>
                </mxCell>
                <mxCell id="35" value="" style="edgeStyle=none;html=1;fontColor=#000000;" edge="1" parent="1" source="12" target="10">
                    <mxGeometry relative="1" as="geometry"/>
                </mxCell>
                <mxCell id="12" value="&lt;font color=&quot;#000000&quot;&gt;Forsvinder ved at rotere,&lt;br&gt;fader ud&lt;br&gt;&lt;/font&gt;" style="html=1;align=center;verticalAlign=top;rounded=1;absoluteArcSize=1;arcSize=10;dashed=0;fillColor=#eeeeee;strokeColor=#36393d;" vertex="1" parent="1">
                    <mxGeometry x="80" y="520" width="140" height="40" as="geometry"/>
                </mxCell>
                <mxCell id="13" value="&lt;font color=&quot;#000000&quot;&gt;Forsvinder ved at rotere,&lt;br&gt;fader ud&lt;br&gt;&lt;/font&gt;" style="html=1;align=center;verticalAlign=top;rounded=1;absoluteArcSize=1;arcSize=10;dashed=0;fillColor=#eeeeee;strokeColor=#36393d;" vertex="1" parent="1">
                    <mxGeometry x="260" y="520" width="140" height="40" as="geometry"/>
                </mxCell>
                <mxCell id="14" value="&lt;font color=&quot;#000000&quot;&gt;Du får et point&lt;/font&gt;" style="html=1;align=center;verticalAlign=top;rounded=1;absoluteArcSize=1;arcSize=10;dashed=0;fillColor=#eeeeee;strokeColor=#36393d;" vertex="1" parent="1">
                    <mxGeometry x="80" y="590" width="140" height="30" as="geometry"/>
                </mxCell>
                <mxCell id="15" value="&lt;font color=&quot;#000000&quot;&gt;Du mister et liv&lt;/font&gt;" style="html=1;align=center;verticalAlign=top;rounded=1;absoluteArcSize=1;arcSize=10;dashed=0;fillColor=#eeeeee;strokeColor=#36393d;" vertex="1" parent="1">
                    <mxGeometry x="260" y="590" width="140" height="30" as="geometry"/>
                </mxCell>
                <mxCell id="16" value="" style="rhombus;fillColor=#eeeeee;strokeColor=#36393d;" vertex="1" parent="1">
                    <mxGeometry x="315" y="650" width="30" height="30" as="geometry"/>
                </mxCell>
                <mxCell id="17" value="" style="html=1;points=[];perimeter=orthogonalPerimeter;fillColor=#eeeeee;rotation=90;strokeColor=#36393d;" vertex="1" parent="1">
                    <mxGeometry x="240" y="540" width="15" height="377.5" as="geometry"/>
                </mxCell>
                <mxCell id="19" value="" style="rhombus;fillColor=#eeeeee;strokeColor=#36393d;" vertex="1" parent="1">
                    <mxGeometry x="615" y="630" width="30" height="30" as="geometry"/>
                </mxCell>
                <mxCell id="20" value="&lt;font color=&quot;#000000&quot;&gt;Game over&lt;/font&gt;" style="html=1;align=center;verticalAlign=top;rounded=1;absoluteArcSize=1;arcSize=10;dashed=0;fillColor=#eeeeee;strokeColor=#36393d;" vertex="1" parent="1">
                    <mxGeometry x="475" y="713.75" width="140" height="30" as="geometry"/>
                </mxCell>
                <mxCell id="21" value="&lt;font color=&quot;#000000&quot;&gt;Level complete&lt;/font&gt;" style="html=1;align=center;verticalAlign=top;rounded=1;absoluteArcSize=1;arcSize=10;dashed=0;fillColor=#eeeeee;strokeColor=#36393d;" vertex="1" parent="1">
                    <mxGeometry x="645" y="713.75" width="140" height="30" as="geometry"/>
                </mxCell>
                <mxCell id="22" value="" style="ellipse;html=1;shape=endState;fillColor=#eeeeee;strokeColor=#36393d;" vertex="1" parent="1">
                    <mxGeometry x="615" y="790" width="30" height="30" as="geometry"/>
                </mxCell>
                <mxCell id="23" value="" style="html=1;verticalAlign=bottom;labelBackgroundColor=none;endArrow=block;endFill=1;fontColor=#000000;fillColor=#eeeeee;strokeColor=#36393d;exitX=0.5;exitY=1;exitDx=0;exitDy=0;entryX=0.5;entryY=0;entryDx=0;entryDy=0;" edge="1" parent="1" source="2" target="3">
                    <mxGeometry width="160" relative="1" as="geometry">
                        <mxPoint x="237.5" y="140" as="sourcePoint"/>
                        <mxPoint x="397.5" y="140" as="targetPoint"/>
                    </mxGeometry>
                </mxCell>
                <mxCell id="24" value="" style="html=1;verticalAlign=bottom;labelBackgroundColor=none;endArrow=block;endFill=1;fontColor=#000000;fillColor=#eeeeee;strokeColor=#36393d;entryX=0.5;entryY=0;entryDx=0;entryDy=0;" edge="1" parent="1">
                    <mxGeometry width="160" relative="1" as="geometry">
                        <mxPoint x="245" y="190" as="sourcePoint"/>
                        <mxPoint x="244.87" y="210" as="targetPoint"/>
                    </mxGeometry>
                </mxCell>
                <mxCell id="25" value="" style="html=1;verticalAlign=bottom;labelBackgroundColor=none;endArrow=block;endFill=1;fontColor=#000000;fillColor=#eeeeee;strokeColor=#36393d;exitX=0.5;exitY=1;exitDx=0;exitDy=0;entryX=0.5;entryY=0;entryDx=0;entryDy=0;" edge="1" parent="1">
                    <mxGeometry width="160" relative="1" as="geometry">
                        <mxPoint x="244.73" y="240" as="sourcePoint"/>
                        <mxPoint x="244.73" y="270" as="targetPoint"/>
                    </mxGeometry>
                </mxCell>
                <mxCell id="26" value="" style="html=1;verticalAlign=bottom;labelBackgroundColor=none;endArrow=block;endFill=1;fontColor=#000000;fillColor=#eeeeee;strokeColor=#36393d;entryX=0.5;entryY=0;entryDx=0;entryDy=0;" edge="1" parent="1" source="5">
                    <mxGeometry width="160" relative="1" as="geometry">
                        <mxPoint x="149.69" y="300" as="sourcePoint"/>
                        <mxPoint x="149.69" y="330" as="targetPoint"/>
                    </mxGeometry>
                </mxCell>
                <mxCell id="27" value="" style="html=1;verticalAlign=bottom;labelBackgroundColor=none;endArrow=block;endFill=1;fontColor=#000000;fillColor=#eeeeee;strokeColor=#36393d;entryX=0.5;entryY=0;entryDx=0;entryDy=0;" edge="1" parent="1">
                    <mxGeometry width="160" relative="1" as="geometry">
                        <mxPoint x="329.69000000000005" y="286.25" as="sourcePoint"/>
                        <mxPoint x="329.69000000000005" y="330" as="targetPoint"/>
                    </mxGeometry>
                </mxCell>
                <mxCell id="28" value="" style="html=1;verticalAlign=bottom;labelBackgroundColor=none;endArrow=block;endFill=1;fontColor=#000000;fillColor=#eeeeee;strokeColor=#36393d;entryX=0.5;entryY=0;entryDx=0;entryDy=0;" edge="1" parent="1">
                    <mxGeometry width="160" relative="1" as="geometry">
                        <mxPoint x="150" y="360" as="sourcePoint"/>
                        <mxPoint x="149.69000000000005" y="390" as="targetPoint"/>
                    </mxGeometry>
                </mxCell>
                <mxCell id="29" value="" style="html=1;verticalAlign=bottom;labelBackgroundColor=none;endArrow=block;endFill=1;fontColor=#000000;fillColor=#eeeeee;strokeColor=#36393d;entryX=0.5;entryY=0;entryDx=0;entryDy=0;" edge="1" parent="1">
                    <mxGeometry width="160" relative="1" as="geometry">
                        <mxPoint x="330" y="360" as="sourcePoint"/>
                        <mxPoint x="329.69000000000005" y="390" as="targetPoint"/>
                    </mxGeometry>
                </mxCell>
                <mxCell id="30" value="" style="html=1;verticalAlign=bottom;labelBackgroundColor=none;endArrow=block;endFill=1;fontColor=#000000;fillColor=#eeeeee;strokeColor=#36393d;entryX=0.5;entryY=0;entryDx=0;entryDy=0;" edge="1" parent="1">
                    <mxGeometry width="160" relative="1" as="geometry">
                        <mxPoint x="150" y="420" as="sourcePoint"/>
                        <mxPoint x="149.69000000000005" y="450" as="targetPoint"/>
                    </mxGeometry>
                </mxCell>
                <mxCell id="31" value="" style="html=1;verticalAlign=bottom;labelBackgroundColor=none;endArrow=block;endFill=1;fontColor=#000000;fillColor=#eeeeee;strokeColor=#36393d;entryX=0.5;entryY=0;entryDx=0;entryDy=0;" edge="1" parent="1">
                    <mxGeometry width="160" relative="1" as="geometry">
                        <mxPoint x="330" y="420" as="sourcePoint"/>
                        <mxPoint x="329.69000000000005" y="450" as="targetPoint"/>
                    </mxGeometry>
                </mxCell>
                <mxCell id="32" value="" style="html=1;verticalAlign=bottom;labelBackgroundColor=none;endArrow=block;endFill=1;fontColor=#000000;fillColor=#eeeeee;strokeColor=#36393d;entryX=0.5;entryY=0;entryDx=0;entryDy=0;" edge="1" parent="1">
                    <mxGeometry width="160" relative="1" as="geometry">
                        <mxPoint x="150" y="490" as="sourcePoint"/>
                        <mxPoint x="149.69000000000005" y="520" as="targetPoint"/>
                    </mxGeometry>
                </mxCell>
                <mxCell id="34" value="" style="html=1;verticalAlign=bottom;labelBackgroundColor=none;endArrow=block;endFill=1;fontColor=#000000;fillColor=#eeeeee;strokeColor=#36393d;entryX=0.5;entryY=0;entryDx=0;entryDy=0;" edge="1" parent="1">
                    <mxGeometry width="160" relative="1" as="geometry">
                        <mxPoint x="329.97" y="490" as="sourcePoint"/>
                        <mxPoint x="329.6600000000001" y="520" as="targetPoint"/>
                    </mxGeometry>
                </mxCell>
                <mxCell id="36" value="" style="html=1;verticalAlign=bottom;labelBackgroundColor=none;endArrow=block;endFill=1;fontColor=#000000;fillColor=#eeeeee;strokeColor=#36393d;entryX=0.5;entryY=0;entryDx=0;entryDy=0;" edge="1" parent="1">
                    <mxGeometry width="160" relative="1" as="geometry">
                        <mxPoint x="150.08" y="560" as="sourcePoint"/>
                        <mxPoint x="149.77000000000007" y="590" as="targetPoint"/>
                    </mxGeometry>
                </mxCell>
                <mxCell id="37" value="" style="html=1;verticalAlign=bottom;labelBackgroundColor=none;endArrow=block;endFill=1;fontColor=#000000;fillColor=#eeeeee;strokeColor=#36393d;entryX=0.5;entryY=0;entryDx=0;entryDy=0;" edge="1" parent="1">
                    <mxGeometry width="160" relative="1" as="geometry">
                        <mxPoint x="330.08000000000004" y="560" as="sourcePoint"/>
                        <mxPoint x="329.7700000000001" y="590" as="targetPoint"/>
                    </mxGeometry>
                </mxCell>
                <mxCell id="38" value="" style="html=1;verticalAlign=bottom;labelBackgroundColor=none;endArrow=block;endFill=1;fontColor=#000000;fillColor=#eeeeee;strokeColor=#36393d;entryX=0.5;entryY=0;entryDx=0;entryDy=0;" edge="1" parent="1">
                    <mxGeometry width="160" relative="1" as="geometry">
                        <mxPoint x="330.15" y="620" as="sourcePoint"/>
                        <mxPoint x="329.84000000000003" y="650" as="targetPoint"/>
                    </mxGeometry>
                </mxCell>
                <mxCell id="43" value="" style="html=1;verticalAlign=bottom;labelBackgroundColor=none;endArrow=block;endFill=1;fontColor=#000000;fillColor=#eeeeee;strokeColor=#36393d;entryX=0.042;entryY=0.761;entryDx=0;entryDy=0;entryPerimeter=0;" edge="1" parent="1" target="17">
                    <mxGeometry width="160" relative="1" as="geometry">
                        <mxPoint x="150.11000000000004" y="620" as="sourcePoint"/>
                        <mxPoint x="149.8000000000001" y="650" as="targetPoint"/>
                    </mxGeometry>
                </mxCell>
                <mxCell id="44" value="" style="html=1;verticalAlign=bottom;labelBackgroundColor=none;endArrow=block;endFill=1;fontColor=#000000;fillColor=#eeeeee;strokeColor=#36393d;" edge="1" parent="1">
                    <mxGeometry width="160" relative="1" as="geometry">
                        <mxPoint x="330.02" y="680" as="sourcePoint"/>
                        <mxPoint x="330" y="720" as="targetPoint"/>
                    </mxGeometry>
                </mxCell>
                <mxCell id="46" value="[Stadig liv tilbage]" style="text;html=1;align=center;verticalAlign=middle;resizable=0;points=[];autosize=1;strokeColor=none;fillColor=none;fontColor=#000000;" vertex="1" parent="1">
                    <mxGeometry x="210" y="680" width="120" height="30" as="geometry"/>
                </mxCell>
                <mxCell id="47" value="" style="html=1;verticalAlign=bottom;labelBackgroundColor=none;endArrow=block;endFill=1;fontColor=#000000;fillColor=#eeeeee;strokeColor=#36393d;exitX=1;exitY=0.507;exitDx=0;exitDy=0;exitPerimeter=0;entryX=0.589;entryY=1.002;entryDx=0;entryDy=0;entryPerimeter=0;" edge="1" parent="1" source="17" target="5">
                    <mxGeometry width="160" relative="1" as="geometry">
                        <mxPoint x="245.57000000000002" y="740" as="sourcePoint"/>
                        <mxPoint x="50" y="280" as="targetPoint"/>
                        <Array as="points">
                            <mxPoint x="245" y="800"/>
                            <mxPoint x="30" y="800"/>
                            <mxPoint x="30" y="279"/>
                        </Array>
                    </mxGeometry>
                </mxCell>
                <mxCell id="48" value="[Spillet er stadig i gang]" style="text;html=1;align=center;verticalAlign=middle;resizable=0;points=[];autosize=1;strokeColor=none;fillColor=none;fontColor=#000000;" vertex="1" parent="1">
                    <mxGeometry x="65" y="800" width="150" height="30" as="geometry"/>
                </mxCell>
                <mxCell id="49" value="" style="html=1;verticalAlign=bottom;labelBackgroundColor=none;endArrow=block;endFill=1;fontColor=#000000;fillColor=#eeeeee;strokeColor=#36393d;exitX=0.528;exitY=-0.001;exitDx=0;exitDy=0;exitPerimeter=0;entryX=0.5;entryY=0;entryDx=0;entryDy=0;" edge="1" parent="1" source="5" target="19">
                    <mxGeometry width="160" relative="1" as="geometry">
                        <mxPoint x="470.00000000000006" y="279.9999999999999" as="sourcePoint"/>
                        <mxPoint x="640" y="380" as="targetPoint"/>
                        <Array as="points">
                            <mxPoint x="630" y="280"/>
                        </Array>
                    </mxGeometry>
                </mxCell>
                <mxCell id="18" value="" style="shape=collate;whiteSpace=wrap;html=1;fillColor=#eeeeee;strokeColor=#36393d;" vertex="1" parent="1">
                    <mxGeometry x="610" y="427.5" width="40" height="40" as="geometry"/>
                </mxCell>
                <mxCell id="50" value="Spillet slutter &lt;br&gt;efter 20 sek" style="text;html=1;align=center;verticalAlign=middle;resizable=0;points=[];autosize=1;strokeColor=none;fillColor=none;fontColor=#000000;" vertex="1" parent="1">
                    <mxGeometry x="650" y="427.5" width="90" height="40" as="geometry"/>
                </mxCell>
                <mxCell id="51" value="" style="html=1;verticalAlign=bottom;labelBackgroundColor=none;endArrow=block;endFill=1;fontColor=#000000;fillColor=#eeeeee;strokeColor=#36393d;exitX=0;exitY=0.5;exitDx=0;exitDy=0;" edge="1" parent="1" source="19">
                    <mxGeometry width="160" relative="1" as="geometry">
                        <mxPoint x="610" y="650" as="sourcePoint"/>
                        <mxPoint x="544.75" y="715" as="targetPoint"/>
                        <Array as="points">
                            <mxPoint x="545" y="645"/>
                        </Array>
                    </mxGeometry>
                </mxCell>
                <mxCell id="52" value="" style="html=1;verticalAlign=bottom;labelBackgroundColor=none;endArrow=block;endFill=1;fontColor=#000000;fillColor=#eeeeee;strokeColor=#36393d;exitX=0;exitY=0.5;exitDx=0;exitDy=0;entryX=0.534;entryY=0.03;entryDx=0;entryDy=0;entryPerimeter=0;" edge="1" parent="1" target="21">
                    <mxGeometry width="160" relative="1" as="geometry">
                        <mxPoint x="645" y="643.75" as="sourcePoint"/>
                        <mxPoint x="574.75" y="713.75" as="targetPoint"/>
                        <Array as="points">
                            <mxPoint x="720" y="644"/>
                        </Array>
                    </mxGeometry>
                </mxCell>
                <mxCell id="53" value="" style="html=1;verticalAlign=bottom;labelBackgroundColor=none;endArrow=block;endFill=1;fontColor=#000000;fillColor=#eeeeee;strokeColor=#36393d;exitX=0.536;exitY=0.982;exitDx=0;exitDy=0;entryX=1;entryY=0.5;entryDx=0;entryDy=0;exitPerimeter=0;" edge="1" parent="1" source="21" target="22">
                    <mxGeometry width="160" relative="1" as="geometry">
                        <mxPoint x="645" y="779.5500000000001" as="sourcePoint"/>
                        <mxPoint x="719.76" y="850.4499999999999" as="targetPoint"/>
                        <Array as="points">
                            <mxPoint x="720" y="805"/>
                        </Array>
                    </mxGeometry>
                </mxCell>
                <mxCell id="54" value="" style="html=1;verticalAlign=bottom;labelBackgroundColor=none;endArrow=block;endFill=1;fontColor=#000000;fillColor=#eeeeee;strokeColor=#36393d;exitX=0.536;exitY=0.982;exitDx=0;exitDy=0;entryX=0;entryY=0.5;entryDx=0;entryDy=0;exitPerimeter=0;" edge="1" parent="1" target="22">
                    <mxGeometry width="160" relative="1" as="geometry">
                        <mxPoint x="545.04" y="743.7500000000001" as="sourcePoint"/>
                        <mxPoint x="470.0000000000042" y="805.54" as="targetPoint"/>
                        <Array as="points">
                            <mxPoint x="545" y="805.54"/>
                        </Array>
                    </mxGeometry>
                </mxCell>
                <mxCell id="55" value="" style="html=1;verticalAlign=bottom;labelBackgroundColor=none;endArrow=block;endFill=1;fontColor=#000000;fillColor=#eeeeee;strokeColor=#36393d;exitX=1;exitY=0.5;exitDx=0;exitDy=0;entryX=0.25;entryY=0;entryDx=0;entryDy=0;" edge="1" parent="1" source="16" target="20">
                    <mxGeometry width="160" relative="1" as="geometry">
                        <mxPoint x="349.75" y="670" as="sourcePoint"/>
                        <mxPoint x="399.75" y="740" as="targetPoint"/>
                        <Array as="points">
                            <mxPoint x="510" y="665"/>
                        </Array>
                    </mxGeometry>
                </mxCell>
                <mxCell id="56" value="[Ingen liv tilbage]" style="text;html=1;align=center;verticalAlign=middle;resizable=0;points=[];autosize=1;strokeColor=none;fillColor=none;fontColor=#000000;" vertex="1" parent="1">
                    <mxGeometry x="375" y="640" width="110" height="30" as="geometry"/>
                </mxCell>
                <mxCell id="57" value="[Eller]" style="text;html=1;align=center;verticalAlign=middle;resizable=0;points=[];autosize=1;strokeColor=none;fillColor=none;fontColor=#000000;" vertex="1" parent="1">
                    <mxGeometry x="560" y="610" width="50" height="30" as="geometry"/>
                </mxCell>
                <mxCell id="58" value="[15 point &lt;br&gt;eller mer]" style="text;html=1;align=center;verticalAlign=middle;resizable=0;points=[];autosize=1;strokeColor=none;fillColor=none;fontColor=#000000;" vertex="1" parent="1">
                    <mxGeometry x="645" y="600" width="70" height="40" as="geometry"/>
                </mxCell>
            </root>
        </mxGraphModel>
    </diagram>
</mxfile>